#N canvas 4 4 1920 1037 12;
#X obj 99 281 sel 2;
#X obj 162 281 sel 3;
#X obj 99 305 bng 19 250 50 0 empty empty empty 0 -10 0 12 #fcfcfc #000000 #000000;
#X obj 162 305 bng 19 250 50 0 empty empty empty 0 -10 0 12 #fcfcfc #000000 #000000;
#X obj 299 61 metro 500;
#X obj 299 42 tgl 19 0 empty empty Arm\ the\ Cannon... 0 -10 0 12 #ff0400 #000000 #000000 0 1;
#X obj 299 80 int 1;
#X obj 338 80 + 1;
#X obj 223 281 sel 4;
#X obj 290 281 sel 5;
#X obj 361 284 sel 6;
#X obj 430 283 sel 7;
#X obj 223 305 bng 19 250 50 0 empty empty empty 0 -10 0 12 #fcfcfc #000000 #000000;
#X obj 290 305 bng 19 250 50 0 empty empty empty 0 -10 0 12 #fcfcfc #000000 #000000;
#X obj 361 308 bng 19 250 50 0 empty empty empty 0 -10 0 12 #fcfcfc #000000 #000000;
#X obj 430 307 bng 19 250 50 0 empty empty empty 0 -10 0 12 #fcfcfc #000000 #000000;
#X obj 1685 168 hsl 162 19 0 1000 0 0 empty empty Change\ Cannon\ Speed... -2 -10 0 12 #ff8300 #000000 #000000 0 1;
#X floatatom 1682 187 5 0 0 0 - - - 0;
#X obj 491 281 sel 8;
#X obj 117 355 r p;
#X floatatom 1056 268 5 0 0 1 - - - 0;
#X obj 509 357 r p;
#X obj 448 356 r p;
#X obj 379 357 r p;
#X obj 308 356 r p;
#X obj 180 353 r p;
#X obj 241 354 r p;
#X obj 491 306 bng 19 250 50 0 empty empty empty 0 -10 0 12 #fcfcfc #000000 #000000;
#X obj 303 152 tgl 19 0 rf empty Rapid\ Fire... 0 -10 0 12 #ff0400 #000000 #000000 0 1;
#X obj 1059 248 hsl 162 19 -4 4 0 0 empty empty Change\ Pitch... -2 -10 0 12 #ff8300 #000000 #000000 0 1;
#X obj 1682 205 s cs;
#X obj 359 43 r cs;
#X obj 99 375 *;
#X obj 162 373 *;
#X obj 223 373 *;
#X obj 290 375 *;
#X obj 361 376 *;
#X obj 430 375 *;
#X obj 491 376 *;
#X msg 912 198 1;
#X msg 965 199 2;
#X msg 1021 199 3;
#X msg 1072 199 4;
#X floatatom 540 6 5 0 0 1 Total\ Beats - - 0;
#X floatatom 1119 38 5 0 0 1 Measure\ Count - - 0;
#X obj 559 24 / 8;
#X msg 435 61 0;
#X obj 753 164 sel 1;
#X obj 797 163 sel 3;
#X obj 844 162 sel 5;
#X obj 892 163 sel 7;
#X obj 936 163 sel 9;
#X obj 984 164 sel 11;
#X obj 1036 162 sel 13;
#X obj 1502 59 sel 0;
#X obj 1499 96 sel 1;
#X obj 1495 135 sel 3;
#X obj 1501 174 sel 7;
#X obj 1505 201 sel 9;
#X obj 1506 230 sel 17;
#X obj 1504 260 sel 19;
#X obj 1245 161 sel 21;
#X obj 1089 161 sel 15;
#X obj 1140 160 sel 17;
#X obj 1190 160 sel 19;
#X obj 1245 185 bng 19 250 50 0 reset empty empty 0 -10 0 12 #fcfcfc #000000 #000000;
#X obj 435 42 r reset;
#X msg 1587 153 250;
#X msg 1590 220 250;
#X msg 1592 249 125;
#X msg 1590 279 250;
#X msg 1595 193 62;
#X msg 1575 79 62;
#X msg 1579 114 62;
#X msg 99 329 246;
#X msg 162 329 261;
#X msg 223 329 293;
#X msg 290 331 311;
#X msg 361 333 369;
#X msg 430 331 392;
#X msg 492 328 440;
#X obj 526 710 phasor~ 440;
#X obj 844 381 netreceive -u -b -f 12345;
#X listbox 1100 400 30 0 0 0 - - - 0;
#X obj 844 406 fudiparse, f 12;
#X obj 715 521 array set first;
#N canvas 104 104 450 250 (subpatch) 0;
#X array first 4 float 3;
#A 0 50.1 212.1 142.4 236.4;
#X coords 0 500 4 -10 200 140 1;
#X restore 1627 349 graph;
#X obj 855 484 / 10;
#X obj 921 482 / 10;
#X obj 993 482 / 10;
#X obj 1050 480 / 10;
#X obj 876 523 tgl 19 0 empty empty empty 0 -10 0 12 #fcfcfc #000000 #000000 0 1;
#X obj 942 521 tgl 19 0 empty empty empty 0 -10 0 12 #fcfcfc #000000 #000000 0 1;
#X obj 1014 521 tgl 19 0 empty empty empty 0 -10 0 12 #fcfcfc #000000 #000000 0 1;
#X obj 1071 519 tgl 19 0 empty empty empty 0 -10 0 12 #fcfcfc #000000 #000000 0 1;
#N canvas 104 104 450 250 (subpatch) 0;
#X array second 7 float 3;
#A 0 0 0 0 0 0 0 0;
#X coords 0 3 7 -1 200 140 1;
#X restore 1627 508 graph;
#X floatatom 1256 272 5 0 0 0 - - - 0;
#X floatatom 1353 501 5 0 0 0 - - - 0;
#X obj 715 502 pack f f f f;
#X floatatom 917 550 5 0 0 0 - - - 0;
#X floatatom 980 551 5 0 0 0 - - - 0;
#X floatatom 1053 552 5 0 0 0 - - - 0;
#X floatatom 1445 509 5 0 0 0 - - - 0;
#X floatatom 1489 511 5 0 0 0 - - - 0;
#X floatatom 1404 505 5 0 0 0 - - - 0;
#X floatatom 1297 494 5 0 0 0 - - - 0;
#X floatatom 1535 511 5 0 0 0 - - - 0;
#X floatatom 1584 511 5 0 0 0 - - - 0;
#X obj 844 431 unpack f f f f f f f f f f f;
#X obj 876 503 < 60;
#X obj 942 501 < 60;
#X obj 1014 501 < 60;
#X obj 1071 499 < 60;
#X obj 1345 620 pack f f f f f f f;
#X obj 1348 660 array set second;
#X msg 523 821 level \$1;
#X obj 511 866 output~;
#X obj 696 700 phasor~ 440;
#X msg 693 811 level \$1;
#X obj 681 856 output~;
#X obj 825 705 phasor~ 440;
#X msg 822 816 level \$1;
#X obj 810 861 output~;
#X obj 959 712 phasor~ 440;
#X msg 956 823 level \$1;
#X obj 944 868 output~;
#X floatatom 829 554 5 0 0 0 - - - 0;
#X obj 1098 709 phasor~ 440;
#X msg 1095 820 level \$1;
#X obj 1083 865 output~;
#X obj 1247 709 phasor~ 440;
#X msg 1244 820 level \$1;
#X obj 1232 865 output~;
#X obj 1690 744 phasor~ 440;
#X msg 1687 855 level \$1;
#X obj 1675 900 output~;
#X obj 848 525 i;
#X obj 909 526 i;
#X obj 980 522 i;
#X obj 1043 524 i;
#X obj 558 666 * 1.12;
#X obj 716 667 * 1.25;
#X obj 855 668 * 1.33;
#X obj 979 668 * 1.49;
#X obj 1098 671 * 1.68;
#X obj 1259 674 * 1.88;
#X obj 1688 708 * 2;
#X obj 368 709 phasor~ 440;
#X msg 391 816 level \$1;
#X obj 379 861 output~;
#X listbox 1101 425 41 0 0 0 - - - 0;
#X listbox 353 434 30 0 0 0 - - - 0;
#X obj 97 440 fudiparse, f 12;
#X obj 97 415 netreceive -u -b -f 54321;
#X obj 97 466 unpack f f f f f;
#X floatatom 98 508 5 0 0 0 - - - 0;
#X floatatom 147 506 5 0 0 0 - - - 0;
#X floatatom 199 507 5 0 0 0 - - - 0;
#X floatatom 247 507 5 0 0 0 - - - 0;
#X floatatom 295 507 5 0 0 0 - - - 0;
#X obj 147 531 moses 2;
#X floatatom 147 555 5 0 0 0 - - - 0;
#X obj 193 689 i;
#X obj 228 689 + 1;
#X floatatom 193 713 5 0 0 0 - - - 0;
#X obj 147 581 change 1;
#X floatatom 147 608 5 0 0 0 - - - 0;
#X obj 147 635 moses 1;
#X obj 193 661 bng 19 250 50 0 empty empty empty 0 -10 0 12 #fcfcfc #000000 #000000;
#X connect 0 0 2 0;
#X connect 1 0 3 0;
#X connect 2 0 74 0;
#X connect 3 0 75 0;
#X connect 4 0 6 0;
#X connect 5 0 4 0;
#X connect 6 0 7 0;
#X connect 6 0 43 0;
#X connect 7 0 6 1;
#X connect 8 0 12 0;
#X connect 9 0 13 0;
#X connect 10 0 14 0;
#X connect 11 0 15 0;
#X connect 12 0 76 0;
#X connect 13 0 77 0;
#X connect 14 0 78 0;
#X connect 15 0 79 0;
#X connect 16 0 17 0;
#X connect 17 0 30 0;
#X connect 18 0 27 0;
#X connect 19 0 32 1;
#X connect 21 0 38 1;
#X connect 22 0 37 1;
#X connect 23 0 36 1;
#X connect 24 0 35 1;
#X connect 25 0 33 1;
#X connect 26 0 34 1;
#X connect 27 0 80 0;
#X connect 29 0 20 0;
#X connect 31 0 4 1;
#X connect 43 0 45 0;
#X connect 44 0 47 0;
#X connect 44 0 48 0;
#X connect 44 0 49 0;
#X connect 44 0 50 0;
#X connect 44 0 51 0;
#X connect 44 0 52 0;
#X connect 44 0 53 0;
#X connect 44 0 55 0;
#X connect 44 0 54 0;
#X connect 44 0 56 0;
#X connect 44 0 57 0;
#X connect 44 0 58 0;
#X connect 44 0 59 0;
#X connect 44 0 60 0;
#X connect 44 0 61 0;
#X connect 44 0 62 0;
#X connect 44 0 63 0;
#X connect 44 0 64 0;
#X connect 45 0 44 0;
#X connect 46 0 6 0;
#X connect 47 0 39 0;
#X connect 48 0 40 0;
#X connect 49 0 41 0;
#X connect 50 0 39 0;
#X connect 51 0 40 0;
#X connect 52 0 42 0;
#X connect 53 0 39 0;
#X connect 54 0 72 0;
#X connect 55 0 73 0;
#X connect 56 0 67 0;
#X connect 57 0 71 0;
#X connect 58 0 68 0;
#X connect 59 0 69 0;
#X connect 60 0 70 0;
#X connect 61 0 65 0;
#X connect 62 0 41 0;
#X connect 63 0 40 0;
#X connect 64 0 39 0;
#X connect 66 0 46 0;
#X connect 67 0 16 0;
#X connect 68 0 16 0;
#X connect 69 0 16 0;
#X connect 70 0 16 0;
#X connect 71 0 16 0;
#X connect 72 0 16 0;
#X connect 73 0 16 0;
#X connect 74 0 32 0;
#X connect 75 0 33 0;
#X connect 76 0 34 0;
#X connect 77 0 35 0;
#X connect 78 0 36 0;
#X connect 79 0 37 0;
#X connect 80 0 38 0;
#X connect 81 0 116 0;
#X connect 81 0 116 1;
#X connect 82 0 84 0;
#X connect 82 1 83 0;
#X connect 84 0 108 0;
#X connect 84 0 150 0;
#X connect 87 0 98 0;
#X connect 87 0 109 0;
#X connect 87 0 136 0;
#X connect 88 0 98 1;
#X connect 88 0 110 0;
#X connect 88 0 137 0;
#X connect 89 0 98 2;
#X connect 89 0 111 0;
#X connect 89 0 138 0;
#X connect 90 0 98 3;
#X connect 90 0 112 0;
#X connect 90 0 139 0;
#X connect 97 0 113 1;
#X connect 97 0 115 0;
#X connect 98 0 85 0;
#X connect 102 0 113 3;
#X connect 102 0 121 0;
#X connect 103 0 113 4;
#X connect 103 0 124 0;
#X connect 104 0 113 2;
#X connect 104 0 118 0;
#X connect 105 0 113 0;
#X connect 105 0 148 0;
#X connect 106 0 113 5;
#X connect 106 0 128 0;
#X connect 107 0 113 6;
#X connect 107 0 131 0;
#X connect 108 0 87 0;
#X connect 108 1 88 0;
#X connect 108 2 89 0;
#X connect 108 3 90 0;
#X connect 108 4 97 0;
#X connect 108 5 102 0;
#X connect 108 6 103 0;
#X connect 108 7 104 0;
#X connect 108 8 105 0;
#X connect 108 9 106 0;
#X connect 108 10 107 0;
#X connect 109 0 91 0;
#X connect 110 0 92 0;
#X connect 111 0 93 0;
#X connect 112 0 94 0;
#X connect 113 0 114 0;
#X connect 115 0 116 0;
#X connect 117 0 119 0;
#X connect 117 0 119 1;
#X connect 118 0 119 0;
#X connect 120 0 122 0;
#X connect 120 0 122 1;
#X connect 121 0 122 0;
#X connect 123 0 125 0;
#X connect 123 0 125 1;
#X connect 124 0 125 0;
#X connect 126 0 141 0;
#X connect 126 0 142 0;
#X connect 126 0 143 0;
#X connect 126 0 144 0;
#X connect 126 0 145 0;
#X connect 126 0 140 0;
#X connect 126 0 147 0;
#X connect 127 0 129 0;
#X connect 127 0 129 1;
#X connect 128 0 129 0;
#X connect 130 0 132 0;
#X connect 130 0 132 1;
#X connect 131 0 132 0;
#X connect 133 0 135 0;
#X connect 133 0 135 1;
#X connect 134 0 135 0;
#X connect 136 0 126 0;
#X connect 137 0 99 0;
#X connect 138 0 100 0;
#X connect 139 0 101 0;
#X connect 140 0 81 0;
#X connect 141 0 117 0;
#X connect 142 0 120 0;
#X connect 143 0 123 0;
#X connect 144 0 127 0;
#X connect 145 0 130 0;
#X connect 146 0 133 0;
#X connect 147 0 149 0;
#X connect 147 0 149 1;
#X connect 148 0 149 0;
#X connect 152 0 154 0;
#X connect 153 0 152 0;
#X connect 153 1 151 0;
#X connect 154 0 155 0;
#X connect 154 1 156 0;
#X connect 154 2 157 0;
#X connect 154 3 158 0;
#X connect 154 4 159 0;
#X connect 156 0 160 0;
#X connect 160 0 161 0;
#X connect 161 0 165 0;
#X connect 162 0 163 0;
#X connect 162 0 164 0;
#X connect 163 0 162 1;
#X connect 165 0 166 0;
#X connect 166 0 167 0;
#X connect 167 1 168 0;
#X connect 168 0 162 0;
