#N canvas 33 16 1235 931 12;
#X floatatom 176 112 5 0 0 0 - - - 0;
#X floatatom 299 112 5 0 0 0 - - - 0;
#X floatatom 456 111 5 0 0 0 - - - 0;
#X obj 299 130 / 1000;
#X obj 176 130 / 1000;
#X obj 456 129 / 1000;
#X floatatom 299 149 5 0 0 0 - - - 0;
#X floatatom 176 149 5 0 0 0 - - - 0;
#X floatatom 456 148 5 0 0 0 - - - 0;
#X floatatom 613 437 10 0 0 0 - - - 0;
#X obj 613 399 bng 19 250 50 0 empty check empty 0 -10 0 12 #fcfcfc #000000 #000000;
#X floatatom 611 289 5 0 0 0 - - - 0;
#X floatatom 611 367 5 0 0 0 - - - 0;
#X obj 611 324 bng 19 250 50 0 empty check empty 0 -10 0 12 #fcfcfc #000000 #000000;
#X obj 611 251 bng 19 250 50 0 empty check empty 0 -10 0 12 #fcfcfc #000000 #000000;
#X floatatom 734 288 5 0 0 0 - - - 0;
#X floatatom 734 362 5 0 0 0 - - - 0;
#X floatatom 811 441 10 0 0 0 - - - 0;
#X obj 811 403 bng 19 250 50 0 empty check empty 0 -10 0 12 #fcfcfc #000000 #000000;
#X floatatom 809 293 5 0 0 0 - - - 0;
#X floatatom 809 366 5 0 0 0 - - - 0;
#X obj 809 328 bng 19 250 50 0 empty check empty 0 -10 0 12 #fcfcfc #000000 #000000;
#X obj 809 255 bng 19 250 50 0 empty check empty 0 -10 0 12 #fcfcfc #000000 #000000;
#X floatatom 904 293 5 0 0 0 - - - 0;
#X floatatom 904 366 5 0 0 0 - - - 0;
#X floatatom 985 443 10 0 0 0 - - - 0;
#X obj 985 405 bng 19 250 50 0 empty check empty 0 -10 0 12 #fcfcfc #000000 #000000;
#X floatatom 983 295 5 0 0 0 - - - 0;
#X floatatom 983 368 5 0 0 0 - - - 0;
#X obj 983 330 bng 19 250 50 0 empty check empty 0 -10 0 12 #fcfcfc #000000 #000000;
#X obj 983 257 bng 19 250 50 0 empty check empty 0 -10 0 12 #fcfcfc #000000 #000000;
#X floatatom 1092 295 5 0 0 0 - - - 0;
#X floatatom 1092 368 5 0 0 0 - - - 0;
#X obj 19 168 % 6000;
#X obj 19 207 sel 5999;
#X obj 19 227 bng 19 250 50 0 check empty empty 0 -10 0 12 #fcfcfc #000000 #000000;
#X listbox 227 27 30 0 0 0 - - - 0;
#X obj 19 33 fudiparse, f 12;
#X obj 19 8 netreceive -u -b -f 54321;
#X obj 19 59 unpack f f f f f;
#X floatatom 93 112 5 0 0 0 - - - 0;
#X obj 93 130 moses 2;
#X floatatom 93 156 5 0 0 0 - - - 0;
#X obj 139 250 i;
#X obj 174 250 + 1;
#X obj 93 174 change 1;
#X floatatom 93 193 5 0 0 0 - - - 0;
#X obj 93 212 moses 1;
#X obj 139 231 bng 19 250 50 0 InspStart empty empty 0 -10 0 12 #fcfcfc #000000 #000000;
#X obj 139 149 bng 19 250 50 0 empty empty empty 0 -10 0 12 #fcfcfc #000000 #000000;
#X obj 32 187 s index;
#X obj 510 147 r index;
#X obj 360 148 r index;
#X obj 223 148 r index;
#X obj 31 130 metro 1;
#X obj 31 149 i;
#X obj 57 149 + 1;
#X obj 31 111 tgl 19 0 empty empty empty 0 -10 0 12 #fcfcfc #000000 #000000 0 1;
#X msg 174 231 0;
#X text 198 231 reset;
#X obj 93 232 bng 19 250 50 0 InspEnd empty empty 0 -10 0 12 #fcfcfc #000000 #000000;
#X text 31 862 breath sequence #;
#X obj 139 270 s bsn;
#X obj 35 820 r bsn;
#X floatatom 35 840 5 0 0 0 - - - 0;
#X obj 50 558 bng 50 250 50 0 empty InspStart Exhalation\ End-Inspiration\ Start 0 -10 0 12 #fcfcfc #000000 #000000;
#X obj 270 577 bng 50 250 50 0 empty InspEnd Inspiration\ End-Exhalation\ Begin 0 -10 0 12 #fcfcfc #000000 #000000;
#X obj 18 650 timer;
#X floatatom 18 674 10 0 0 0 - - - 0;
#X obj 238 666 timer;
#X floatatom 238 690 11 0 0 0 - - - 0;
#X obj 18 708 +;
#X floatatom 18 727 12 0 0 1 Total\ Cycle\ Time\ (ms) - - 0;
#X obj 86 745 r bsn;
#X obj 18 745 / 1000;
#X listbox 282 62 26 0 0 0 - - - 0;
#X obj 176 167 array set 6sflow;
#X obj 299 167 array set 6spressure;
#X obj 456 166 array set 6svolume;
#X obj 611 270 array min 6spressure;
#X obj 611 343 array max 6spressure;
#X obj 613 418 array sum 6spressure;
#X obj 811 422 array sum 6sflow;
#X obj 810 347 array max 6sflow;
#X obj 809 274 array min 6sflow;
#X obj 983 276 array min 6svolume;
#X obj 983 349 array max 6svolume;
#X obj 985 424 array sum 6svolume;
#X obj 882 50 array define 6spressure 6000;
#X obj 883 78 array define 6sflow 6000;
#X obj 884 104 array define 6svolume 6000;
#X obj 606 710 array min pressurebreath;
#X obj 814 708 array max pressurebreath;
#X obj 997 706 array sum pressurebreath;
#X obj 423 754 array set pressurebreath;
#X obj 505 696 metro 1;
#X obj 505 715 i, f 2;
#X obj 531 715 + 1;
#X obj 505 677 tgl 19 0 empty empty empty 0 -10 0 12 #fcfcfc #000000 #000000 0 1;
#X floatatom 505 735 8 0 0 0 - - - 0;
#X msg 410 678 0;
#X obj 362 124 s p;
#X obj 423 723 r p;
#X obj 410 645 bng 20 250 50 0 empty InspStart Inspiration\ Start 0 -10 0 12 #fcfcfc #000000 #000000;
#X obj 885 22 array define -yrange -4 4 breathtime(s) 100;
#X obj 18 764 array set breathtime(s);
#X text 133 743 Divide by 1000 ms;
#X text 184 764 Write total seconds per breath;
#X obj 886 129 array define -yrange 0 1 pressurebreath 6000;
#X obj 977 600 array set pressurebreath;
#X obj 1059 542 metro 1;
#X obj 1059 561 i, f 2;
#X obj 1085 561 + 1;
#X obj 1059 523 tgl 19 0 empty empty empty 0 -10 0 12 #fcfcfc #000000 #000000 0 1;
#X floatatom 1059 581 8 0 0 0 - - - 0;
#X msg 1018 542 0;
#X obj 977 569 r p;
#X floatatom 814 824 5 0 0 0 PIP - - 0;
#X floatatom 997 730 12 0 0 0 - - - 0;
#X floatatom 756 734 5 0 0 0 - - - 0;
#X floatatom 606 815 5 0 0 0 PEEP - - 0;
#X floatatom 938 741 5 0 0 0 - - - 0;
#X obj 815 662 bng 19 250 50 0 empty empty empty 0 -10 0 12 #fcfcfc #000000 #000000;
#X obj 289 736 s tct;
#X obj 1052 773 r tct;
#X obj 997 792 /;
#X floatatom 997 824 5 0 0 0 - - - 0;
#X text 1038 822 Average Pressure per Breath;
#X connect 0 0 4 0;
#X connect 1 0 3 0;
#X connect 2 0 5 0;
#X connect 3 0 6 0;
#X connect 4 0 7 0;
#X connect 5 0 8 0;
#X connect 6 0 77 0;
#X connect 6 0 101 0;
#X connect 7 0 76 0;
#X connect 8 0 78 0;
#X connect 10 0 81 0;
#X connect 13 0 80 0;
#X connect 14 0 79 0;
#X connect 18 0 82 0;
#X connect 21 0 83 0;
#X connect 22 0 84 0;
#X connect 26 0 87 0;
#X connect 29 0 86 0;
#X connect 30 0 85 0;
#X connect 33 0 34 0;
#X connect 33 0 50 0;
#X connect 34 0 35 0;
#X connect 37 0 39 0;
#X connect 37 0 75 0;
#X connect 38 0 37 0;
#X connect 38 1 36 0;
#X connect 39 1 40 0;
#X connect 39 2 0 0;
#X connect 39 3 1 0;
#X connect 39 4 2 0;
#X connect 40 0 41 0;
#X connect 41 0 42 0;
#X connect 41 1 49 0;
#X connect 42 0 45 0;
#X connect 43 0 44 0;
#X connect 43 0 62 0;
#X connect 44 0 43 1;
#X connect 45 0 46 0;
#X connect 46 0 47 0;
#X connect 47 0 60 0;
#X connect 47 1 48 0;
#X connect 48 0 43 0;
#X connect 51 0 78 1;
#X connect 52 0 77 1;
#X connect 53 0 76 1;
#X connect 54 0 55 0;
#X connect 55 0 56 0;
#X connect 55 0 33 0;
#X connect 56 0 55 1;
#X connect 57 0 54 0;
#X connect 58 0 43 0;
#X connect 63 0 64 0;
#X connect 65 0 69 0;
#X connect 65 0 67 1;
#X connect 66 0 67 0;
#X connect 66 0 69 1;
#X connect 67 0 68 0;
#X connect 68 0 71 0;
#X connect 69 0 70 0;
#X connect 70 0 71 1;
#X connect 71 0 72 0;
#X connect 72 0 74 0;
#X connect 72 0 123 0;
#X connect 73 0 105 1;
#X connect 74 0 105 0;
#X connect 79 0 11 0;
#X connect 79 1 15 0;
#X connect 80 0 12 0;
#X connect 80 1 16 0;
#X connect 81 0 9 0;
#X connect 82 0 17 0;
#X connect 83 0 20 0;
#X connect 83 1 24 0;
#X connect 84 0 19 0;
#X connect 84 1 23 0;
#X connect 85 0 27 0;
#X connect 85 1 31 0;
#X connect 86 0 28 0;
#X connect 86 1 32 0;
#X connect 87 0 25 0;
#X connect 91 0 120 0;
#X connect 91 1 119 0;
#X connect 92 0 117 0;
#X connect 92 1 121 0;
#X connect 93 0 118 0;
#X connect 95 0 96 0;
#X connect 96 0 97 0;
#X connect 96 0 99 0;
#X connect 97 0 96 1;
#X connect 98 0 95 0;
#X connect 99 0 94 1;
#X connect 100 0 96 0;
#X connect 100 0 94 0;
#X connect 102 0 94 0;
#X connect 103 0 100 0;
#X connect 103 0 122 0;
#X connect 110 0 111 0;
#X connect 111 0 112 0;
#X connect 111 0 114 0;
#X connect 112 0 111 1;
#X connect 113 0 110 0;
#X connect 114 0 109 1;
#X connect 115 0 111 0;
#X connect 115 0 109 0;
#X connect 116 0 109 0;
#X connect 118 0 125 0;
#X connect 122 0 91 0;
#X connect 122 0 92 0;
#X connect 122 0 93 0;
#X connect 124 0 125 1;
#X connect 125 0 126 0;
