#N canvas 4 0 1920 1037 12;
#X obj 45 451 sel 1;
#X obj 101 450 sel 2;
#X obj 164 450 sel 3;
#X obj 45 525 bng 19 250 50 0 empty empty empty 0 -10 0 12 #fcfcfc #000000 #000000;
#X obj 101 474 bng 19 250 50 0 empty empty empty 0 -10 0 12 #fcfcfc #000000 #000000;
#X obj 164 474 bng 19 250 50 0 empty empty empty 0 -10 0 12 #fcfcfc #000000 #000000;
#X obj 299 61 metro 500;
#X obj 299 42 tgl 19 0 empty empty Arm\ the\ Cannon... 0 -10 0 12 #ff0400 #000000 #000000 0 1;
#X obj 299 80 int 1;
#X obj 338 80 + 1;
#X obj 225 450 sel 4;
#X obj 292 450 sel 5;
#X obj 363 453 sel 6;
#X obj 432 452 sel 7;
#X obj 225 474 bng 19 250 50 0 empty empty empty 0 -10 0 12 #fcfcfc #000000 #000000;
#X obj 292 474 bng 19 250 50 0 empty empty empty 0 -10 0 12 #fcfcfc #000000 #000000;
#X obj 363 477 bng 19 250 50 0 empty empty empty 0 -10 0 12 #fcfcfc #000000 #000000;
#X obj 432 476 bng 19 250 50 0 empty empty empty 0 -10 0 12 #fcfcfc #000000 #000000;
#X obj 190 658 output~;
#X obj 1685 168 hsl 162 19 0 1000 0 0 empty empty Change\ Cannon\ Speed... -2 -10 0 12 #ff8300 #000000 #000000 0 1;
#X floatatom 1682 187 5 0 0 0 - - - 0;
#X obj 493 450 sel 8;
#X obj 119 524 r p;
#X obj 1056 286 s p;
#X floatatom 1056 268 5 0 0 1 - - - 0;
#X obj 511 526 r p;
#X obj 450 525 r p;
#X obj 381 526 r p;
#X obj 310 525 r p;
#X obj 182 522 r p;
#X obj 243 523 r p;
#X obj 63 521 r p;
#X obj 493 475 bng 19 250 50 0 empty empty empty 0 -10 0 12 #fcfcfc #000000 #000000;
#X obj 219 321 % 8;
#X obj 219 361 + 1;
#X floatatom 219 381 5 0 0 0 - - - 0;
#X obj 219 341 spigot;
#X obj 303 152 tgl 19 0 rf empty Rapid\ Fire... 0 -10 0 12 #ff0400 #000000 #000000 0 1;
#X obj 1059 248 hsl 162 19 -4 4 0 0 empty empty Change\ Pitch... -2 -10 0 12 #ff8300 #000000 #000000 0 1;
#X obj 1682 205 s cs;
#X obj 359 43 r cs;
#X obj 258 321 r rf;
#X obj 45 590 *;
#X obj 101 544 *;
#X obj 164 542 *;
#X obj 225 542 *;
#X obj 292 544 *;
#X obj 363 545 *;
#X obj 432 544 *;
#X obj 493 545 *;
#X msg 912 198 1;
#X msg 965 199 2;
#X msg 1021 199 3;
#X msg 1072 199 4;
#X floatatom 540 6 5 0 0 1 Total\ Beats - - 0;
#X floatatom 1119 38 5 0 0 1 Measure\ Count - - 0;
#X obj 559 24 / 8;
#X msg 435 61 0;
#X obj 816 311 % 8;
#X obj 816 330 spigot;
#X floatatom 816 350 5 0 0 0 - - - 0;
#X floatatom 798 411 5 0 0 0 - - - 0;
#X obj 798 387 -;
#X msg 781 368 8;
#X obj 305 322 tgl 19 0 empty add add 0 -10 0 12 #fcfcfc #000000 #000000 0 1;
#X obj 873 311 tgl 19 0 empty minus minus 0 -10 0 12 #fcfcfc #000000 #000000 0 1;
#X obj 753 164 sel 1;
#X obj 797 163 sel 3;
#X obj 844 162 sel 5;
#X obj 892 163 sel 7;
#X obj 936 163 sel 9;
#X obj 612 453 sel 1;
#X obj 668 452 sel 2;
#X obj 731 452 sel 3;
#X obj 612 477 bng 19 250 50 0 empty empty empty 0 -10 0 12 #fcfcfc #000000 #000000;
#X obj 668 476 bng 19 250 50 0 empty empty empty 0 -10 0 12 #fcfcfc #000000 #000000;
#X obj 731 476 bng 19 250 50 0 empty empty empty 0 -10 0 12 #fcfcfc #000000 #000000;
#X obj 782 452 sel 4;
#X obj 839 452 sel 5;
#X obj 890 455 sel 6;
#X obj 939 454 sel 7;
#X obj 782 476 bng 19 250 50 0 empty empty empty 0 -10 0 12 #fcfcfc #000000 #000000;
#X obj 839 476 bng 19 250 50 0 empty empty empty 0 -10 0 12 #fcfcfc #000000 #000000;
#X obj 890 479 bng 19 250 50 0 empty empty empty 0 -10 0 12 #fcfcfc #000000 #000000;
#X obj 939 478 bng 19 250 50 0 empty empty empty 0 -10 0 12 #fcfcfc #000000 #000000;
#X obj 807 588 osc~ 440;
#X obj 1000 452 sel 8;
#X obj 686 526 r p;
#X obj 1018 528 r p;
#X obj 957 527 r p;
#X obj 908 528 r p;
#X obj 857 527 r p;
#X obj 749 524 r p;
#X obj 800 525 r p;
#X obj 630 523 r p;
#X obj 1000 477 bng 19 250 50 0 empty empty empty 0 -10 0 12 #fcfcfc #000000 #000000;
#X obj 612 542 *;
#X obj 668 546 *;
#X obj 731 544 *;
#X obj 782 544 *;
#X obj 839 546 *;
#X obj 890 547 *;
#X obj 939 546 *;
#X obj 1000 547 *;
#X obj 984 164 sel 11;
#X obj 1036 162 sel 13;
#X obj 1502 59 sel 0;
#X obj 1499 96 sel 1;
#X obj 1495 135 sel 3;
#X obj 1501 174 sel 7;
#X obj 1505 201 sel 9;
#X obj 1506 230 sel 17;
#X obj 1504 260 sel 19;
#X obj 1245 161 sel 21;
#X obj 1089 161 sel 15;
#X obj 1140 160 sel 17;
#X obj 1190 160 sel 19;
#X obj 1245 185 bng 19 250 50 0 reset empty empty 0 -10 0 12 #fcfcfc #000000 #000000;
#X obj 435 42 r reset;
#X msg 1587 153 250;
#X msg 1590 220 250;
#X msg 1592 249 125;
#X msg 1590 279 250;
#X msg 612 500 66;
#X msg 890 504 92;
#X msg 1000 499 92;
#X msg 1595 193 62;
#X msg 1575 79 62;
#X msg 1579 114 62;
#X msg 45 548 220;
#X msg 101 498 246;
#X msg 164 498 261;
#X msg 225 498 293;
#X msg 292 500 311;
#X msg 363 502 369;
#X msg 432 500 392;
#X msg 494 497 440;
#X msg 668 500 66;
#X msg 731 500 66;
#X msg 782 502 66;
#X msg 838 501 92;
#X msg 939 502 92;
#X obj 807 624 output~;
#X obj 1419 478 bng 19 250 50 0 empty empty empty 0 -10 0 12 #fcfcfc #000000 #000000;
#X obj 1488 477 bng 19 250 50 0 empty empty empty 0 -10 0 12 #fcfcfc #000000 #000000;
#X obj 1200 616 output~;
#X obj 1175 525 r p;
#X obj 1567 527 r p;
#X obj 1506 526 r p;
#X obj 1437 527 r p;
#X obj 1366 526 r p;
#X obj 1238 523 r p;
#X obj 1299 524 r p;
#X obj 1119 522 r p;
#X obj 1549 476 bng 19 250 50 0 empty empty empty 0 -10 0 12 #fcfcfc #000000 #000000;
#X obj 1101 541 *;
#X obj 1157 545 *;
#X obj 1220 543 *;
#X obj 1281 543 *;
#X obj 1348 545 *;
#X obj 1419 546 *;
#X obj 1488 545 *;
#X obj 1549 546 *;
#X msg 1419 503 340;
#X msg 1488 501 250;
#X msg 1550 498 250;
#X obj 192 622 phasor~ 440;
#X floatatom 378 594 4 0 120 0 - - - 0;
#X floatatom 412 625 4 0 100 0 - - - 0;
#X floatatom 446 662 6 0 0 0 - - - 0;
#X floatatom 481 688 4 0 100 0 - - - 0;
#X text 494 662 crossover frequency \, Hz.;
#X obj 286 751 output~;
#X obj 344 717 rev2~ 100 90 3000 20;
#X text 516 689 High Frequency damping (in percent: 0-100), f 22;
#X obj 435 751 output~;
#X text 412 593 output level dB;
#X text 445 618 liveness/feedback (in percent: 0-100), f 19;
#X obj 817 744 netreceive -u -b -f 12345;
#X listbox 1073 763 30 0 0 0 - - - 0;
#X obj 817 769 fudiparse, f 12;
#X floatatom 1472 815 5 0 0 0 - - - 0;
#X floatatom 1525 816 5 0 0 0 - - - 0;
#X floatatom 1577 815 5 0 0 0 - - - 0;
#X obj 753 950 array set first;
#N canvas 104 104 450 250 (subpatch) 0;
#X array first 5 float 3;
#A 0 0 0 0 0 0;
#X coords 0 10 5 -10 200 140 1;
#X restore 1627 349 graph;
#X obj 682 823 / 10;
#X obj 1066 837 / 1000;
#X obj 1364 859 tgl 19 0 empty empty empty 0 -10 0 12 #fcfcfc #000000 #000000 0 1;
#X obj 1305 859 tgl 19 0 empty empty empty 0 -10 0 12 #fcfcfc #000000 #000000 0 1;
#X obj 1247 858 tgl 19 0 empty empty empty 0 -10 0 12 #fcfcfc #000000 #000000 0 1;
#X obj 738 821 / 10;
#X obj 790 821 / 10;
#X obj 837 819 / 10;
#X obj 890 819 / 10;
#X obj 703 862 tgl 19 0 empty empty empty 0 -10 0 12 #fcfcfc #000000 #000000 0 1;
#X obj 759 860 tgl 19 0 empty empty empty 0 -10 0 12 #fcfcfc #000000 #000000 0 1;
#X obj 811 860 tgl 19 0 empty empty empty 0 -10 0 12 #fcfcfc #000000 #000000 0 1;
#X obj 858 858 tgl 19 0 empty empty empty 0 -10 0 12 #fcfcfc #000000 #000000 0 1;
#X obj 911 858 tgl 19 0 empty empty empty 0 -10 0 12 #fcfcfc #000000 #000000 0 1;
#X obj 911 838 < 6;
#X obj 858 838 < 6;
#X obj 811 840 < 6;
#X obj 759 840 < 6;
#X obj 703 842 < 6;
#X obj 1472 833 i;
#X floatatom 1472 852 5 0 0 0 - - - 0;
#X obj 1525 834 i;
#X obj 1577 833 i;
#X floatatom 1577 852 5 0 0 0 - - - 0;
#X floatatom 1525 853 5 0 0 0 - - - 0;
#X obj 979 859 pack f f f;
#X obj 979 878 array set second;
#X obj 1099 988 array set third;
#X obj 1099 962 pack f f f;
#X obj 1488 920 array set fourth;
#X obj 1488 892 pack f f f;
#N canvas 104 104 450 250 (subpatch) 0;
#X array second 3 float 3;
#A 0 0 0 0;
#X coords 0 10 3 -10 200 140 1;
#X restore 1627 508 graph;
#N canvas 104 104 450 250 (subpatch) 0;
#X array third 3 float 3;
#A 0 0 0 0;
#X coords 0 10 3 -10 200 140 1;
#X restore 1625 671 graph;
#N canvas 104 104 450 250 (subpatch) 0;
#X array fourth 3 float 3;
#A 0 -0.05 -0.02 -0.03;
#X coords 0 10 3 -10 200 140 1;
#X restore 1625 837 graph;
#X obj 817 792 unpack f f f f f f f f f f f f f f;
#X obj 1217 979 spigot;
#X obj 1288 929 spigot;
#X obj 1336 883 spigot;
#X obj 1217 999 array set thirdset;
#X msg 1278 979 0;
#N canvas 0 50 450 250 (subpatch) 0;
#X array thirdset 3 float 3;
#A 0 7.04 1.19 9.7;
#X coords 0 10 3 -10 200 140 1;
#X restore 56 33 graph;
#X obj 1288 949 array set thirdset;
#X obj 1336 903 array set thirdset;
#X msg 1349 930 1;
#X msg 1397 884 2;
#X obj 1247 839 > 1;
#X obj 1305 839 > 1;
#X obj 1364 839 > 1;
#X obj 480 876 change;
#X floatatom 480 900 5 0 0 0 - - - 0;
#X obj 753 931 pack f f f f f;
#X obj 1233 361 array get first;
#X obj 1231 329 bng 19 250 50 0 empty empty empty 0 -10 0 12 #fcfcfc #000000 #000000;
#X msg 1332 328 symbol first;
#X floatatom 1256 272 5 0 0 0 - - - 0;
#X obj 1247 408 unpack f f f f f;
#X msg 1348 501 \$1;
#X msg 1281 499 \$1;
#X msg 1220 499 \$1;
#X msg 1157 499 \$1;
#X msg 1101 499 \$1;
#X obj 1173 445 * 100;
#X obj 1215 452 * 100;
#X obj 1267 454 * 100;
#X obj 1314 450 * 100;
#X obj 1366 448 * 100;
#X obj 1200 596 phasor~;
#X obj 1315 606 output~;
#X obj 1315 586 phasor~;
#X obj 1068 612 output~;
#X obj 1068 592 phasor~;
#X obj 1458 610 output~;
#X obj 1458 590 phasor~;
#X obj 954 614 output~;
#X obj 954 594 phasor~;
#X listbox 1369 768 30 0 0 0 - - - 0;
#X connect 0 0 3 0;
#X connect 1 0 4 0;
#X connect 2 0 5 0;
#X connect 3 0 129 0;
#X connect 4 0 130 0;
#X connect 5 0 131 0;
#X connect 6 0 8 0;
#X connect 7 0 6 0;
#X connect 8 0 9 0;
#X connect 8 0 54 0;
#X connect 8 0 33 0;
#X connect 9 0 8 1;
#X connect 10 0 14 0;
#X connect 11 0 15 0;
#X connect 12 0 16 0;
#X connect 13 0 17 0;
#X connect 14 0 132 0;
#X connect 15 0 133 0;
#X connect 16 0 134 0;
#X connect 17 0 135 0;
#X connect 19 0 20 0;
#X connect 20 0 39 0;
#X connect 21 0 32 0;
#X connect 22 0 43 1;
#X connect 24 0 23 0;
#X connect 25 0 49 1;
#X connect 26 0 48 1;
#X connect 27 0 47 1;
#X connect 28 0 46 1;
#X connect 29 0 44 1;
#X connect 30 0 45 1;
#X connect 31 0 42 1;
#X connect 32 0 136 0;
#X connect 33 0 36 0;
#X connect 34 0 35 0;
#X connect 35 0 0 0;
#X connect 35 0 1 0;
#X connect 35 0 2 0;
#X connect 35 0 10 0;
#X connect 35 0 11 0;
#X connect 35 0 12 0;
#X connect 35 0 13 0;
#X connect 35 0 21 0;
#X connect 36 0 34 0;
#X connect 38 0 24 0;
#X connect 40 0 6 1;
#X connect 41 0 36 1;
#X connect 42 0 166 0;
#X connect 43 0 166 0;
#X connect 44 0 166 0;
#X connect 45 0 166 0;
#X connect 46 0 166 0;
#X connect 47 0 166 0;
#X connect 48 0 166 0;
#X connect 49 0 166 0;
#X connect 54 0 56 0;
#X connect 54 0 58 0;
#X connect 54 0 238 0;
#X connect 55 0 66 0;
#X connect 55 0 67 0;
#X connect 55 0 68 0;
#X connect 55 0 69 0;
#X connect 55 0 70 0;
#X connect 55 0 104 0;
#X connect 55 0 105 0;
#X connect 55 0 107 0;
#X connect 55 0 106 0;
#X connect 55 0 108 0;
#X connect 55 0 109 0;
#X connect 55 0 110 0;
#X connect 55 0 111 0;
#X connect 55 0 112 0;
#X connect 55 0 113 0;
#X connect 55 0 114 0;
#X connect 55 0 115 0;
#X connect 55 0 116 0;
#X connect 56 0 55 0;
#X connect 57 0 8 0;
#X connect 58 0 59 0;
#X connect 59 0 60 0;
#X connect 60 0 62 1;
#X connect 60 0 63 0;
#X connect 61 0 71 0;
#X connect 61 0 72 0;
#X connect 61 0 73 0;
#X connect 61 0 77 0;
#X connect 61 0 78 0;
#X connect 61 0 79 0;
#X connect 61 0 80 0;
#X connect 61 0 86 0;
#X connect 62 0 61 0;
#X connect 63 0 62 0;
#X connect 64 0 36 1;
#X connect 65 0 59 1;
#X connect 66 0 50 0;
#X connect 67 0 51 0;
#X connect 68 0 52 0;
#X connect 69 0 50 0;
#X connect 70 0 51 0;
#X connect 71 0 74 0;
#X connect 72 0 75 0;
#X connect 73 0 76 0;
#X connect 74 0 123 0;
#X connect 75 0 137 0;
#X connect 76 0 138 0;
#X connect 77 0 81 0;
#X connect 78 0 82 0;
#X connect 79 0 83 0;
#X connect 80 0 84 0;
#X connect 81 0 139 0;
#X connect 82 0 140 0;
#X connect 83 0 124 0;
#X connect 84 0 141 0;
#X connect 85 0 142 0;
#X connect 86 0 95 0;
#X connect 87 0 97 1;
#X connect 88 0 103 1;
#X connect 89 0 102 1;
#X connect 90 0 101 1;
#X connect 91 0 100 1;
#X connect 92 0 98 1;
#X connect 93 0 99 1;
#X connect 94 0 96 1;
#X connect 95 0 125 0;
#X connect 96 0 85 0;
#X connect 97 0 85 0;
#X connect 98 0 85 0;
#X connect 99 0 85 0;
#X connect 100 0 85 0;
#X connect 101 0 85 0;
#X connect 102 0 85 0;
#X connect 103 0 85 0;
#X connect 104 0 53 0;
#X connect 105 0 50 0;
#X connect 106 0 127 0;
#X connect 107 0 128 0;
#X connect 108 0 119 0;
#X connect 109 0 126 0;
#X connect 110 0 120 0;
#X connect 111 0 121 0;
#X connect 112 0 122 0;
#X connect 113 0 117 0;
#X connect 114 0 52 0;
#X connect 115 0 51 0;
#X connect 116 0 50 0;
#X connect 118 0 57 0;
#X connect 119 0 19 0;
#X connect 120 0 19 0;
#X connect 121 0 19 0;
#X connect 122 0 19 0;
#X connect 123 0 96 0;
#X connect 124 0 101 0;
#X connect 125 0 103 0;
#X connect 126 0 19 0;
#X connect 127 0 19 0;
#X connect 128 0 19 0;
#X connect 129 0 42 0;
#X connect 130 0 43 0;
#X connect 131 0 44 0;
#X connect 132 0 45 0;
#X connect 133 0 46 0;
#X connect 134 0 47 0;
#X connect 135 0 48 0;
#X connect 136 0 49 0;
#X connect 137 0 97 0;
#X connect 138 0 98 0;
#X connect 139 0 99 0;
#X connect 140 0 100 0;
#X connect 141 0 102 0;
#X connect 143 0 163 0;
#X connect 144 0 164 0;
#X connect 146 0 156 1;
#X connect 147 0 162 1;
#X connect 148 0 161 1;
#X connect 149 0 160 1;
#X connect 150 0 159 1;
#X connect 151 0 157 1;
#X connect 152 0 158 1;
#X connect 153 0 155 1;
#X connect 154 0 165 0;
#X connect 155 0 260 0;
#X connect 156 0 256 0;
#X connect 157 0 252 0;
#X connect 158 0 254 0;
#X connect 159 0 258 0;
#X connect 163 0 160 0;
#X connect 164 0 161 0;
#X connect 165 0 162 0;
#X connect 166 0 18 0;
#X connect 166 0 173 0;
#X connect 167 0 173 1;
#X connect 168 0 173 2;
#X connect 169 0 173 3;
#X connect 170 0 173 4;
#X connect 173 0 172 0;
#X connect 173 1 172 1;
#X connect 173 2 175 0;
#X connect 173 3 175 1;
#X connect 178 0 180 0;
#X connect 178 1 179 0;
#X connect 180 0 220 0;
#X connect 180 0 261 0;
#X connect 181 0 205 0;
#X connect 181 0 216 0;
#X connect 182 0 207 0;
#X connect 182 0 216 1;
#X connect 183 0 208 0;
#X connect 183 0 216 2;
#X connect 186 0 204 0;
#X connect 186 0 236 0;
#X connect 187 0 211 2;
#X connect 188 0 223 1;
#X connect 189 0 222 1;
#X connect 190 0 221 1;
#X connect 191 0 203 0;
#X connect 191 0 236 1;
#X connect 192 0 202 0;
#X connect 192 0 236 2;
#X connect 193 0 201 0;
#X connect 193 0 236 3;
#X connect 194 0 200 0;
#X connect 194 0 236 4;
#X connect 200 0 199 0;
#X connect 201 0 198 0;
#X connect 202 0 197 0;
#X connect 203 0 196 0;
#X connect 204 0 195 0;
#X connect 205 0 206 0;
#X connect 207 0 210 0;
#X connect 208 0 209 0;
#X connect 211 0 212 0;
#X connect 214 0 213 0;
#X connect 216 0 215 0;
#X connect 220 0 186 0;
#X connect 220 1 191 0;
#X connect 220 2 192 0;
#X connect 220 3 193 0;
#X connect 220 4 194 0;
#X connect 220 5 211 0;
#X connect 220 6 211 1;
#X connect 220 7 187 0;
#X connect 220 8 231 0;
#X connect 220 8 221 0;
#X connect 220 8 214 0;
#X connect 220 9 232 0;
#X connect 220 9 214 1;
#X connect 220 9 222 0;
#X connect 220 9 247 1;
#X connect 220 9 248 1;
#X connect 220 9 249 1;
#X connect 220 9 250 1;
#X connect 220 9 251 1;
#X connect 220 10 233 0;
#X connect 220 10 223 0;
#X connect 220 10 214 2;
#X connect 220 11 181 0;
#X connect 220 12 182 0;
#X connect 220 13 183 0;
#X connect 221 0 224 0;
#X connect 222 0 227 0;
#X connect 223 0 228 0;
#X connect 225 0 224 1;
#X connect 229 0 227 1;
#X connect 230 0 228 1;
#X connect 231 0 190 0;
#X connect 232 0 189 0;
#X connect 233 0 188 0;
#X connect 234 0 235 0;
#X connect 235 0 32 0;
#X connect 236 0 184 0;
#X connect 237 0 241 0;
#X connect 238 0 237 0;
#X connect 239 0 237 2;
#X connect 240 0 237 0;
#X connect 241 0 247 0;
#X connect 241 1 248 0;
#X connect 241 2 249 0;
#X connect 241 3 250 0;
#X connect 241 4 251 0;
#X connect 242 0 159 0;
#X connect 243 0 158 0;
#X connect 244 0 157 0;
#X connect 245 0 156 0;
#X connect 246 0 155 0;
#X connect 247 0 246 0;
#X connect 248 0 245 0;
#X connect 249 0 244 0;
#X connect 250 0 243 0;
#X connect 251 0 242 0;
#X connect 252 0 145 0;
#X connect 254 0 253 0;
#X connect 256 0 255 0;
#X connect 258 0 257 0;
#X connect 260 0 259 0;
