#N canvas 214 12 1371 867 12;
#X obj 205 436 sel 0;
#X obj 258 419 sel 1;
#X obj 334 418 sel 2;
#X obj 397 418 sel 3;
#X obj 205 460 bng 19 250 50 0 empty empty empty 0 -10 0 12 #fcfcfc #000000 #000000;
#X obj 258 443 bng 19 250 50 0 empty empty empty 0 -10 0 12 #fcfcfc #000000 #000000;
#X obj 334 442 bng 19 250 50 0 empty empty empty 0 -10 0 12 #fcfcfc #000000 #000000;
#X obj 397 442 bng 19 250 50 0 empty empty empty 0 -10 0 12 #fcfcfc #000000 #000000;
#X obj 62 138 metro 500;
#X obj 62 119 tgl 19 0 empty empty Arm\ the\ Cannon... 0 -10 0 12 #ff0400 #000000 #000000 0 1;
#X obj 62 157 int 1;
#X obj 102 157 + 1;
#X obj 458 418 sel 4;
#X obj 525 418 sel 5;
#X obj 596 421 sel 6;
#X obj 665 420 sel 7;
#X obj 458 442 bng 19 250 50 0 empty empty empty 0 -10 0 12 #fcfcfc #000000 #000000;
#X obj 525 442 bng 19 250 50 0 empty empty empty 0 -10 0 12 #fcfcfc #000000 #000000;
#X obj 596 445 bng 19 250 50 0 empty empty empty 0 -10 0 12 #fcfcfc #000000 #000000;
#X obj 665 444 bng 19 250 50 0 empty empty empty 0 -10 0 12 #fcfcfc #000000 #000000;
#X obj 424 600 osc~ 440;
#X obj 424 764 output~;
#X obj 895 121 hsl 162 19 0 1000 0 0 empty empty Change\ Cannon\ Speed... -2 -10 0 12 #ff8300 #000000 #000000 0 1;
#X floatatom 892 140 5 0 0 0 - - - 0;
#X obj 726 418 sel 8;
#X msg 884 555 0;
#X msg 461 730 level \$1;
#X obj 884 430 sel 9;
#X obj 352 552 r p;
#X obj 893 73 s p;
#X floatatom 893 55 5 0 0 1 - - - 0;
#X obj 744 554 r p;
#X obj 683 553 r p;
#X obj 614 554 r p;
#X obj 543 553 r p;
#X obj 415 550 r p;
#X obj 476 551 r p;
#X obj 276 549 r p;
#X obj 726 443 bng 19 250 50 0 empty empty empty 0 -10 0 12 #fcfcfc #000000 #000000;
#X obj 884 455 bng 19 250 50 0 empty empty empty 0 -10 0 12 #fcfcfc #000000 #000000;
#X obj 668 177 % 8;
#X obj 668 217 + 1;
#X floatatom 668 237 5 0 0 0 - - - 0;
#X obj 668 197 spigot;
#X obj 425 121 tgl 19 0 rf empty Rapid\ Fire... 0 -10 0 12 #ff0400 #000000 #000000 0 1;
#X obj 940 517 sel 0;
#X obj 135 518 sel 1;
#X obj 940 536 bng 19 250 50 0 empty empty empty 0 -10 0 12 #fcfcfc #000000 #000000;
#X obj 135 537 bng 19 250 50 0 empty empty empty 0 -10 0 12 #fcfcfc #000000 #000000;
#X obj 896 35 hsl 162 19 -4 4 0 0 empty empty Change\ Pitch... -2 -10 0 12 #ff8300 #000000 #000000 0 1;
#X obj 892 163 s cs;
#X obj 122 118 r cs;
#X obj 246 119 bng 19 250 50 0 ss empty Fire\ a\ Single\ Shot... 0 -10 0 12 #ff0400 #000000 #000000;
#X obj 154 119 r ss;
#X obj 707 177 r rf;
#X obj 940 498 r rf;
#X obj 135 499 r rf;
#X msg 154 138 0;
#X msg 205 556 0.3;
#X obj 258 568 *;
#X obj 334 572 *;
#X obj 397 570 *;
#X obj 458 570 *;
#X obj 525 572 *;
#X obj 596 573 *;
#X obj 665 572 *;
#X obj 726 573 *;
#X msg 719 34 1;
#X msg 732 86 2;
#X msg 750 127 3;
#X msg 778 158 4;
#X msg 724 8 0.5;
#X floatatom 416 198 5 0 0 1 Total\ Beats - - 0;
#X floatatom 416 236 5 0 0 1 Measure\ Count - - 0;
#X obj 416 216 / 8;
#X msg 213 152 0;
#X obj 814 192 % 8;
#X obj 816 242 spigot;
#X floatatom 818 278 5 0 0 0 - - - 0;
#X floatatom 844 358 5 0 0 0 - - - 0;
#X obj 844 334 -;
#X msg 784 318 8;
#X obj 587 69 tgl 19 0 empty add add 0 -10 0 12 #fcfcfc #000000 #000000 0 1;
#X obj 586 123 tgl 19 0 empty minus minus 0 -10 0 12 #fcfcfc #000000 #000000 0 1;
#N canvas 52 52 450 300 measure1 1;
#X obj 82 60 inlet;
#X obj 45 135 bng 19 250 50 0 empty empty empty 0 -10 0 12 #fcfcfc #000000 #000000;
#X obj 84 133 bng 19 250 50 0 empty empty empty 0 -10 0 12 #fcfcfc #000000 #000000;
#X obj 126 136 bng 19 250 50 0 empty empty empty 0 -10 0 12 #fcfcfc #000000 #000000;
#X obj 166 135 bng 19 250 50 0 empty empty empty 0 -10 0 12 #fcfcfc #000000 #000000;
#X obj 201 133 bng 19 250 50 0 empty empty empty 0 -10 0 12 #fcfcfc #000000 #000000;
#X obj 240 131 bng 19 250 50 0 empty empty empty 0 -10 0 12 #fcfcfc #000000 #000000;
#X obj 285 128 bng 19 250 50 0 empty empty empty 0 -10 0 12 #fcfcfc #000000 #000000;
#X obj 324 126 bng 19 250 50 0 empty empty empty 0 -10 0 12 #fcfcfc #000000 #000000;
#X msg 45 159 130;
#X msg 84 157 165;
#X msg 126 160 196;
#X msg 166 159 247;
#X msg 201 157 330;
#X msg 240 155 392;
#X msg 285 152 494;
#X msg 324 150 660;
#X obj 17 212 outlet;
#X obj 72 211 outlet;
#X obj 123 212 outlet;
#X obj 184 211 outlet;
#X obj 242 209 outlet;
#X obj 297 212 outlet;
#X obj 348 214 outlet;
#X obj 398 214 outlet;
#X connect 0 0 1 0;
#X connect 0 0 8 0;
#X connect 0 0 7 0;
#X connect 0 0 6 0;
#X connect 0 0 5 0;
#X connect 0 0 4 0;
#X connect 0 0 3 0;
#X connect 0 0 2 0;
#X connect 1 0 9 0;
#X connect 2 0 10 0;
#X connect 3 0 11 0;
#X connect 4 0 12 0;
#X connect 5 0 13 0;
#X connect 6 0 14 0;
#X connect 7 0 15 0;
#X connect 8 0 16 0;
#X connect 9 0 17 0;
#X connect 10 0 18 0;
#X connect 11 0 19 0;
#X connect 12 0 20 0;
#X connect 13 0 21 0;
#X connect 14 0 22 0;
#X connect 15 0 23 0;
#X connect 16 0 24 0;
#X restore 1031 253 pd measure1;
#X msg 258 530 \$1;
#X obj 1166 204 sel 2;
#N canvas 156 156 450 300 measure2 1;
#X obj 82 60 inlet;
#X obj 45 135 bng 19 250 50 0 empty empty empty 0 -10 0 12 #fcfcfc #000000 #000000;
#X obj 84 133 bng 19 250 50 0 empty empty empty 0 -10 0 12 #fcfcfc #000000 #000000;
#X obj 126 136 bng 19 250 50 0 empty empty empty 0 -10 0 12 #fcfcfc #000000 #000000;
#X obj 166 135 bng 19 250 50 0 empty empty empty 0 -10 0 12 #fcfcfc #000000 #000000;
#X obj 201 133 bng 19 250 50 0 empty empty empty 0 -10 0 12 #fcfcfc #000000 #000000;
#X obj 240 131 bng 19 250 50 0 empty empty empty 0 -10 0 12 #fcfcfc #000000 #000000;
#X obj 285 128 bng 19 250 50 0 empty empty empty 0 -10 0 12 #fcfcfc #000000 #000000;
#X obj 324 126 bng 19 250 50 0 empty empty empty 0 -10 0 12 #fcfcfc #000000 #000000;
#X obj 17 212 outlet;
#X obj 72 211 outlet;
#X obj 123 212 outlet;
#X obj 184 211 outlet;
#X obj 242 209 outlet;
#X obj 297 212 outlet;
#X obj 348 214 outlet;
#X obj 398 214 outlet;
#X msg 45 159 260;
#X msg 84 157 330;
#X msg 126 160 392;
#X msg 166 159 494;
#X msg 201 157 660;
#X msg 240 155 784;
#X msg 286 152 988;
#X msg 324 150 1220;
#X connect 0 0 1 0;
#X connect 0 0 8 0;
#X connect 0 0 7 0;
#X connect 0 0 6 0;
#X connect 0 0 5 0;
#X connect 0 0 4 0;
#X connect 0 0 3 0;
#X connect 0 0 2 0;
#X connect 1 0 17 0;
#X connect 2 0 18 0;
#X connect 3 0 19 0;
#X connect 4 0 20 0;
#X connect 5 0 21 0;
#X connect 6 0 22 0;
#X connect 7 0 23 0;
#X connect 8 0 24 0;
#X connect 17 0 9 0;
#X connect 18 0 10 0;
#X connect 19 0 11 0;
#X connect 20 0 12 0;
#X connect 21 0 13 0;
#X connect 22 0 14 0;
#X connect 23 0 15 0;
#X connect 24 0 16 0;
#X restore 1165 261 pd measure2;
#X msg 334 533 \$1;
#X msg 397 531 \$1;
#X msg 458 532 \$1;
#X msg 525 534 \$1;
#X msg 596 535 \$1;
#X msg 665 534 \$1;
#X msg 726 535 \$1;
#X obj 967 198 tgl 19 0 empty empty empty 0 -10 0 12 #fcfcfc #000000 #000000 0 1;
#X obj 967 174 > 1;
#X obj 913 217 tgl 19 0 empty empty empty 0 -10 0 12 #fcfcfc #000000 #000000 0 1;
#X obj 913 193 <= 2;
#X obj 890 255 spigot;
#X obj 881 292 bng 19 250 50 0 empty empty empty 0 -10 0 12 #fcfcfc #000000 #000000;
#X connect 0 0 4 0;
#X connect 1 0 5 0;
#X connect 2 0 6 0;
#X connect 3 0 7 0;
#X connect 4 0 58 0;
#X connect 5 0 85 0;
#X connect 6 0 88 0;
#X connect 7 0 89 0;
#X connect 8 0 10 0;
#X connect 9 0 8 0;
#X connect 10 0 11 0;
#X connect 10 0 72 0;
#X connect 10 0 40 0;
#X connect 10 0 3 0;
#X connect 10 0 2 0;
#X connect 10 0 0 0;
#X connect 10 0 1 0;
#X connect 10 0 13 0;
#X connect 10 0 12 0;
#X connect 10 0 27 0;
#X connect 10 0 24 0;
#X connect 10 0 15 0;
#X connect 10 0 14 0;
#X connect 11 0 10 1;
#X connect 12 0 16 0;
#X connect 13 0 17 0;
#X connect 14 0 18 0;
#X connect 15 0 19 0;
#X connect 16 0 90 0;
#X connect 17 0 91 0;
#X connect 18 0 92 0;
#X connect 19 0 93 0;
#X connect 20 0 21 0;
#X connect 22 0 23 0;
#X connect 23 0 50 0;
#X connect 24 0 38 0;
#X connect 25 0 26 0;
#X connect 26 0 21 0;
#X connect 27 0 39 0;
#X connect 28 0 60 1;
#X connect 30 0 29 0;
#X connect 31 0 66 1;
#X connect 32 0 65 1;
#X connect 33 0 64 1;
#X connect 34 0 63 1;
#X connect 35 0 61 1;
#X connect 36 0 62 1;
#X connect 37 0 59 1;
#X connect 38 0 94 0;
#X connect 39 0 25 0;
#X connect 40 0 43 0;
#X connect 41 0 42 0;
#X connect 42 0 1 0;
#X connect 42 0 2 0;
#X connect 42 0 3 0;
#X connect 42 0 12 0;
#X connect 42 0 13 0;
#X connect 42 0 14 0;
#X connect 42 0 15 0;
#X connect 42 0 24 0;
#X connect 43 0 41 0;
#X connect 45 0 47 0;
#X connect 46 0 48 0;
#X connect 47 0 25 0;
#X connect 48 0 58 0;
#X connect 49 0 30 0;
#X connect 51 0 8 1;
#X connect 53 0 57 0;
#X connect 54 0 43 1;
#X connect 55 0 45 0;
#X connect 56 0 46 0;
#X connect 57 0 10 0;
#X connect 58 0 26 0;
#X connect 59 0 20 0;
#X connect 60 0 20 0;
#X connect 61 0 20 0;
#X connect 62 0 20 0;
#X connect 63 0 20 0;
#X connect 64 0 20 0;
#X connect 65 0 20 0;
#X connect 66 0 20 0;
#X connect 67 0 49 0;
#X connect 68 0 49 0;
#X connect 69 0 49 0;
#X connect 70 0 49 0;
#X connect 71 0 49 0;
#X connect 72 0 74 0;
#X connect 72 0 76 0;
#X connect 73 0 96 0;
#X connect 73 0 98 0;
#X connect 74 0 73 0;
#X connect 75 0 10 0;
#X connect 76 0 77 0;
#X connect 77 0 78 0;
#X connect 78 0 80 1;
#X connect 78 0 81 0;
#X connect 79 0 24 0;
#X connect 79 0 15 0;
#X connect 79 0 14 0;
#X connect 79 0 13 0;
#X connect 79 0 12 0;
#X connect 79 0 1 0;
#X connect 79 0 2 0;
#X connect 79 0 3 0;
#X connect 80 0 79 0;
#X connect 81 0 80 0;
#X connect 82 0 43 1;
#X connect 83 0 77 1;
#X connect 84 0 85 0;
#X connect 84 1 88 0;
#X connect 84 2 89 0;
#X connect 84 3 90 0;
#X connect 84 4 91 0;
#X connect 84 5 92 0;
#X connect 84 6 93 0;
#X connect 84 7 94 0;
#X connect 85 0 59 0;
#X connect 88 0 60 0;
#X connect 89 0 61 0;
#X connect 90 0 62 0;
#X connect 91 0 63 0;
#X connect 92 0 64 0;
#X connect 93 0 65 0;
#X connect 94 0 66 0;
#X connect 96 0 95 0;
#X connect 97 0 99 1;
#X connect 97 0 99 0;
#X connect 98 0 97 0;
#X connect 99 0 100 0;
#X connect 100 0 84 0;
